<svg width="392" height="26" viewBox="0 0 392 26" fill="none" xmlns="http://www.w3.org/2000/svg">
<path d="M0.671875 9C1.23438 8.98958 1.74479 8.83854 2.20312 8.54688C2.66146 8.24479 3.0625 7.875 3.40625 7.4375C3.76042 6.98958 4.05729 6.50521 4.29688 5.98438C4.53646 5.46354 4.72396 4.97396 4.85938 4.51562H5.95312C5.95312 5.36979 5.94792 6.16667 5.9375 6.90625C5.9375 7.64583 5.9375 8.34375 5.9375 9H11.3281V10.25L5.9375 10.3125C5.92708 11.6979 5.92188 12.8802 5.92188 13.8594C5.92188 14.8385 5.91667 15.6562 5.90625 16.3125C5.90625 16.9688 5.90625 17.4896 5.90625 17.875C5.90625 18.25 5.90104 18.5365 5.89062 18.7344C5.89062 18.9323 5.89062 19.0625 5.89062 19.125C5.89062 19.1771 5.89062 19.2083 5.89062 19.2188C5.89062 19.9479 5.92708 20.5938 6 21.1562C6.08333 21.7083 6.21875 22.1771 6.40625 22.5625C6.59375 22.9375 6.83854 23.224 7.14062 23.4219C7.45312 23.6094 7.84375 23.7031 8.3125 23.7031C8.86458 23.7031 9.41146 23.5365 9.95312 23.2031C10.4948 22.8698 10.974 22.3958 11.3906 21.7812L12.25 22.4844C11.7812 23.1927 11.3125 23.75 10.8438 24.1562C10.3854 24.5521 9.94792 24.849 9.53125 25.0469C9.11458 25.2552 8.72396 25.3854 8.35938 25.4375C8.00521 25.4896 7.69271 25.5156 7.42188 25.5156C7.09896 25.5156 6.76562 25.4896 6.42188 25.4375C6.08854 25.3854 5.75521 25.2812 5.42188 25.125C5.09896 24.9792 4.79167 24.7708 4.5 24.5C4.21875 24.2188 3.96875 23.8594 3.75 23.4219C3.53125 22.9844 3.35938 22.4531 3.23438 21.8281C3.10938 21.2031 3.05208 20.4635 3.0625 19.6094L3.125 10.3594L0.671875 10.375V9ZM15.4062 5C15.4062 4.66667 15.4062 4.34375 15.4062 4.03125C15.4167 3.71875 15.4479 3.34896 15.5 2.92188L13.2344 3.04688V1.70312C13.9323 1.70312 14.5104 1.68229 14.9688 1.64062C15.4375 1.58854 15.8177 1.52083 16.1094 1.4375C16.401 1.35417 16.6302 1.26562 16.7969 1.17188C16.9635 1.06771 17.1094 0.958333 17.2344 0.84375H18.1562V10.5938C18.5104 10.3021 18.8958 10.026 19.3125 9.76562C19.7292 9.50521 20.1615 9.28125 20.6094 9.09375C21.0677 8.90625 21.5312 8.76042 22 8.65625C22.4792 8.54167 22.9479 8.48438 23.4062 8.48438C24.3333 8.48438 25.1302 8.63021 25.7969 8.92188C26.4635 9.20312 27.0052 9.64062 27.4219 10.2344C27.849 10.8177 28.1615 11.5625 28.3594 12.4688C28.5677 13.3646 28.6771 14.4219 28.6875 15.6406L28.7188 21.6094C28.7188 22.0365 28.7135 22.4167 28.7031 22.75C28.6927 23.0729 28.6562 23.4167 28.5938 23.7812L30.6094 23.6875V25H24.0781V24.0469C24.5677 24.0469 24.9375 23.9531 25.1875 23.7656C25.4479 23.5677 25.6354 23.2969 25.75 22.9531C25.8646 22.6094 25.9271 22.1979 25.9375 21.7188C25.9583 21.2396 25.9688 20.7135 25.9688 20.1406V15.6719C25.9688 13.8281 25.6771 12.4531 25.0938 11.5469C24.5104 10.6302 23.5833 10.1719 22.3125 10.1719C21.9479 10.1719 21.5625 10.224 21.1562 10.3281C20.75 10.4323 20.3646 10.5729 20 10.75C19.6458 10.9271 19.3073 11.1354 18.9844 11.375C18.6719 11.6146 18.3958 11.875 18.1562 12.1562V21.6094C18.1562 22.0365 18.1458 22.4167 18.125 22.75C18.1042 23.0729 18.0625 23.4167 18 23.7812L20.0156 23.6875V25H13.4844V24.0469C13.974 24.0469 14.349 23.9531 14.6094 23.7656C14.8698 23.5677 15.0573 23.2969 15.1719 22.9531C15.2969 22.6094 15.3646 22.1979 15.375 21.7188C15.3958 21.2396 15.4062 20.7135 15.4062 20.1406V5ZM41.0312 9.73438C39.7812 9.73438 38.75 10.1042 37.9375 10.8438C37.125 11.5729 36.5885 12.7604 36.3281 14.4062H44.4844C44.4844 13.8438 44.4219 13.2865 44.2969 12.7344C44.1719 12.1719 43.9688 11.6719 43.6875 11.2344C43.4167 10.7865 43.0625 10.4271 42.625 10.1562C42.1875 9.875 41.6562 9.73438 41.0312 9.73438ZM47.5 15.5625L36.2344 15.75C36.224 16.9792 36.3177 18.0938 36.5156 19.0938C36.7135 20.0938 37.026 20.9479 37.4531 21.6562C37.8802 22.3646 38.4271 22.9115 39.0938 23.2969C39.7708 23.6823 40.5781 23.875 41.5156 23.875C42.0156 23.875 42.526 23.8073 43.0469 23.6719C43.5677 23.5365 44.0677 23.3542 44.5469 23.125C45.0365 22.8854 45.4844 22.6042 45.8906 22.2812C46.2969 21.9479 46.6354 21.5938 46.9062 21.2188L47.6875 21.8594C47.25 22.526 46.7396 23.0938 46.1562 23.5625C45.5833 24.0208 44.9844 24.3958 44.3594 24.6875C43.7448 24.9792 43.125 25.1875 42.5 25.3125C41.875 25.4479 41.2917 25.5156 40.75 25.5156C39.6458 25.5156 38.6146 25.3177 37.6562 24.9219C36.7083 24.526 35.8854 23.9583 35.1875 23.2188C34.4896 22.4792 33.9375 21.5885 33.5312 20.5469C33.1354 19.5052 32.9375 18.3333 32.9375 17.0312C32.9375 15.9062 33.1302 14.8333 33.5156 13.8125C33.901 12.7812 34.4479 11.8698 35.1562 11.0781C35.8646 10.2865 36.7135 9.65625 37.7031 9.1875C38.6927 8.71875 39.7917 8.48438 41 8.48438C41.8854 8.48438 42.7188 8.63021 43.5 8.92188C44.2917 9.21354 44.9844 9.65104 45.5781 10.2344C46.1719 10.8177 46.6406 11.5573 46.9844 12.4531C47.3281 13.3385 47.5 14.375 47.5 15.5625ZM60.7031 12.8438C60.7031 12.5104 60.7083 12.1719 60.7188 11.8281C60.7292 11.4844 60.7656 11.1302 60.8281 10.7656L58.5625 10.8906V9.54688C59.2604 9.54688 59.8281 9.52604 60.2656 9.48438C60.7031 9.43229 61.0521 9.36458 61.3125 9.28125C61.5833 9.19792 61.7917 9.10938 61.9375 9.01562C62.0833 8.91146 62.2188 8.80208 62.3438 8.6875H63.2656C63.2865 8.92708 63.3073 9.20312 63.3281 9.51562C63.3594 9.81771 63.3854 10.1875 63.4062 10.625C63.75 10.3229 64.125 10.0417 64.5312 9.78125C64.9479 9.52083 65.3802 9.29688 65.8281 9.10938C66.276 8.91146 66.7344 8.76042 67.2031 8.65625C67.6823 8.54167 68.151 8.48438 68.6094 8.48438C70.4635 8.48438 71.8177 9.06771 72.6719 10.2344C73.526 11.3906 73.9531 13.1927 73.9531 15.6406V21.6094C73.9531 22.0365 73.9479 22.4167 73.9375 22.75C73.9271 23.0729 73.8906 23.4167 73.8281 23.7812L75.8438 23.6875V25H69.3125V24.0469C69.8021 24.0469 70.1719 23.9531 70.4219 23.7656C70.6823 23.5677 70.8698 23.2969 70.9844 22.9531C71.099 22.6094 71.1615 22.1979 71.1719 21.7188C71.1927 21.2396 71.2031 20.7135 71.2031 20.1406V15.6719C71.1823 13.8281 70.8802 12.4427 70.2969 11.5156C69.7135 10.5781 68.7865 10.1094 67.5156 10.1094C67.1302 10.1094 66.7448 10.1667 66.3594 10.2812C65.974 10.3958 65.6042 10.5469 65.25 10.7344C64.8958 10.9115 64.5625 11.125 64.25 11.375C63.9375 11.625 63.6667 11.8958 63.4375 12.1875C63.4479 12.375 63.4531 12.5781 63.4531 12.7969C63.4531 13.0052 63.4531 13.2188 63.4531 13.4375L63.4219 21.6094C63.4219 22.0365 63.4167 22.4167 63.4062 22.75C63.3958 23.0729 63.3594 23.4167 63.2969 23.7812L65.3125 23.6875V25H58.7812V24.0469C59.2708 24.0469 59.6406 23.9531 59.8906 23.7656C60.151 23.5677 60.3333 23.2969 60.4375 22.9531C60.5521 22.6094 60.6146 22.1979 60.625 21.7188C60.6458 21.2396 60.6615 20.7135 60.6719 20.1406L60.7031 12.8438ZM87.6562 17.1719C87.1667 17.1927 86.6562 17.2396 86.125 17.3125C85.6042 17.375 85.0885 17.4792 84.5781 17.625C84.0781 17.7604 83.6042 17.9375 83.1562 18.1562C82.7083 18.375 82.3177 18.6354 81.9844 18.9375C81.651 19.2396 81.3906 19.5885 81.2031 19.9844C81.0156 20.3802 80.9323 20.8281 80.9531 21.3281C80.9635 21.724 81.0365 22.0729 81.1719 22.375C81.3177 22.6667 81.5 22.9115 81.7188 23.1094C81.9479 23.2969 82.2083 23.4427 82.5 23.5469C82.7917 23.6406 83.1042 23.6875 83.4375 23.6875C83.8646 23.6875 84.2656 23.6458 84.6406 23.5625C85.0156 23.4792 85.3698 23.3594 85.7031 23.2031C86.0469 23.0365 86.375 22.8385 86.6875 22.6094C87.0104 22.3802 87.3333 22.1146 87.6562 21.8125V17.1719ZM78.875 12.3281C78.875 11.7969 79.0312 11.2969 79.3438 10.8281C79.6562 10.3594 80.0938 9.95312 80.6562 9.60938C81.2188 9.25521 81.8854 8.97917 82.6562 8.78125C83.4375 8.58333 84.2865 8.48438 85.2031 8.48438C86.9948 8.48438 88.3125 8.95833 89.1562 9.90625C90.0104 10.8542 90.4323 12.3594 90.4219 14.4219L90.3906 21.6094C90.3906 21.9427 90.3802 22.2812 90.3594 22.625C90.349 22.9583 90.3177 23.3438 90.2656 23.7812L92.5312 23.6562V25H87.9531C87.8906 24.6354 87.8438 24.3177 87.8125 24.0469C87.7812 23.776 87.7552 23.4896 87.7344 23.1875C87.0156 23.9062 86.2292 24.474 85.375 24.8906C84.5312 25.3073 83.6354 25.5156 82.6875 25.5156C81.8854 25.5156 81.1823 25.4167 80.5781 25.2188C79.9844 25.0312 79.4896 24.7656 79.0938 24.4219C78.6979 24.0781 78.401 23.6771 78.2031 23.2188C78.0052 22.75 77.9062 22.25 77.9062 21.7188C77.9062 21.0625 78.0469 20.4635 78.3281 19.9219C78.6198 19.3802 79.0052 18.901 79.4844 18.4844C79.974 18.0573 80.5417 17.6927 81.1875 17.3906C81.8333 17.0781 82.5156 16.8229 83.2344 16.625C83.9635 16.4271 84.7031 16.2865 85.4531 16.2031C86.2135 16.1094 86.9531 16.0677 87.6719 16.0781V14.0781C87.6719 13.526 87.6406 12.9896 87.5781 12.4688C87.5156 11.9479 87.375 11.474 87.1562 11.0469C86.9479 10.6198 86.6146 10.2812 86.1562 10.0312C85.7083 9.78125 85.1875 9.65625 84.5938 9.65625C84.25 9.65625 83.9219 9.6875 83.6094 9.75C83.2969 9.80208 82.9896 9.89583 82.6875 10.0312C82.3854 10.1667 82.1094 10.3438 81.8594 10.5625C81.6198 10.7812 81.4219 11.0417 81.2656 11.3438C81.4219 11.5208 81.526 11.7188 81.5781 11.9375C81.6406 12.1458 81.6719 12.349 81.6719 12.5469C81.6719 12.6719 81.6458 12.8177 81.5938 12.9844C81.5417 13.1406 81.4583 13.2917 81.3438 13.4375C81.2396 13.5729 81.099 13.6875 80.9219 13.7812C80.7552 13.8646 80.526 13.9062 80.2344 13.9062C79.8177 13.9062 79.4844 13.7552 79.2344 13.4531C78.9948 13.1406 78.875 12.7656 78.875 12.3281ZM96.6406 12.8438C96.6406 12.5104 96.6458 12.1719 96.6562 11.8281C96.6667 11.4844 96.7031 11.1302 96.7656 10.7656L94.5 10.8906V9.54688C95.1979 9.54688 95.7656 9.52604 96.2031 9.48438C96.6406 9.43229 96.9896 9.36458 97.25 9.28125C97.5208 9.19792 97.7292 9.10938 97.875 9.01562C98.0208 8.91146 98.1562 8.80208 98.2812 8.6875H99.2031C99.224 8.89583 99.2448 9.13542 99.2656 9.40625C99.2865 9.67708 99.3073 10.0052 99.3281 10.3906C99.651 10.1198 100 9.86979 100.375 9.64062C100.75 9.40104 101.135 9.19792 101.531 9.03125C101.938 8.85417 102.349 8.71875 102.766 8.625C103.193 8.53125 103.615 8.48438 104.031 8.48438C105.115 8.48438 106.016 8.68229 106.734 9.07812C107.453 9.46354 108.016 9.98438 108.422 10.6406C108.776 10.3385 109.167 10.0573 109.594 9.79688C110.021 9.53646 110.464 9.30729 110.922 9.10938C111.38 8.91146 111.849 8.76042 112.328 8.65625C112.807 8.54167 113.276 8.48438 113.734 8.48438C114.661 8.48438 115.464 8.61979 116.141 8.89062C116.828 9.16146 117.391 9.58854 117.828 10.1719C118.276 10.7448 118.599 11.4844 118.797 12.3906C119.005 13.2969 119.099 14.3802 119.078 15.6406L119.047 21.6094C119.047 22.0365 119.042 22.4167 119.031 22.75C119.021 23.0729 118.984 23.4167 118.922 23.7812L120.938 23.6875V25H114.406V24.0469C114.896 24.0469 115.266 23.9531 115.516 23.7656C115.776 23.5677 115.964 23.2969 116.078 22.9531C116.193 22.6094 116.255 22.1979 116.266 21.7188C116.286 21.2396 116.297 20.7135 116.297 20.1406V15.6719C116.297 13.8281 116.005 12.4531 115.422 11.5469C114.839 10.6302 113.911 10.1719 112.641 10.1719C111.974 10.1719 111.307 10.3229 110.641 10.625C109.984 10.9271 109.411 11.3021 108.922 11.75C109.141 12.4688 109.25 13.2448 109.25 14.0781L109.188 21.6094C109.188 22.0365 109.182 22.4167 109.172 22.75C109.161 23.0729 109.125 23.4167 109.062 23.7812L111.078 23.6875V25H104.547V24.0469C105.036 24.0469 105.406 23.9531 105.656 23.7656C105.917 23.5677 106.099 23.2969 106.203 22.9531C106.318 22.6094 106.38 22.1979 106.391 21.7188C106.411 21.2396 106.427 20.7135 106.438 20.1406L106.469 15.6719C106.479 13.8385 106.208 12.4531 105.656 11.5156C105.115 10.5781 104.214 10.1094 102.953 10.1094C102.297 10.1094 101.646 10.2552 101 10.5469C100.365 10.8281 99.8229 11.1979 99.375 11.6562C99.375 11.9062 99.375 12.1771 99.375 12.4688C99.3854 12.75 99.3906 13.0521 99.3906 13.375V21.6094C99.3906 22.0365 99.3854 22.4167 99.375 22.75C99.3646 23.0729 99.3281 23.4167 99.2656 23.7812L101.281 23.6875V25H94.75V24.0469C95.2396 24.0469 95.6094 23.9531 95.8594 23.7656C96.1198 23.5677 96.3073 23.2969 96.4219 22.9531C96.5365 22.6094 96.599 22.1979 96.6094 21.7188C96.6302 21.2396 96.6406 20.7135 96.6406 20.1406V12.8438ZM131.406 9.73438C130.156 9.73438 129.125 10.1042 128.312 10.8438C127.5 11.5729 126.964 12.7604 126.703 14.4062H134.859C134.859 13.8438 134.797 13.2865 134.672 12.7344C134.547 12.1719 134.344 11.6719 134.062 11.2344C133.792 10.7865 133.438 10.4271 133 10.1562C132.562 9.875 132.031 9.73438 131.406 9.73438ZM137.875 15.5625L126.609 15.75C126.599 16.9792 126.693 18.0938 126.891 19.0938C127.089 20.0938 127.401 20.9479 127.828 21.6562C128.255 22.3646 128.802 22.9115 129.469 23.2969C130.146 23.6823 130.953 23.875 131.891 23.875C132.391 23.875 132.901 23.8073 133.422 23.6719C133.943 23.5365 134.443 23.3542 134.922 23.125C135.411 22.8854 135.859 22.6042 136.266 22.2812C136.672 21.9479 137.01 21.5938 137.281 21.2188L138.062 21.8594C137.625 22.526 137.115 23.0938 136.531 23.5625C135.958 24.0208 135.359 24.3958 134.734 24.6875C134.12 24.9792 133.5 25.1875 132.875 25.3125C132.25 25.4479 131.667 25.5156 131.125 25.5156C130.021 25.5156 128.99 25.3177 128.031 24.9219C127.083 24.526 126.26 23.9583 125.562 23.2188C124.865 22.4792 124.312 21.5885 123.906 20.5469C123.51 19.5052 123.312 18.3333 123.312 17.0312C123.312 15.9062 123.505 14.8333 123.891 13.8125C124.276 12.7812 124.823 11.8698 125.531 11.0781C126.24 10.2865 127.089 9.65625 128.078 9.1875C129.068 8.71875 130.167 8.48438 131.375 8.48438C132.26 8.48438 133.094 8.63021 133.875 8.92188C134.667 9.21354 135.359 9.65104 135.953 10.2344C136.547 10.8177 137.016 11.5573 137.359 12.4531C137.703 13.3385 137.875 14.375 137.875 15.5625Z" fill="#111111"/>
<path d="M164.078 0.84375V19.8594C164.078 20.0156 164.073 20.2031 164.062 20.4219C164.062 20.6406 164.057 20.875 164.047 21.125C164.036 21.375 164.021 21.6354 164 21.9062C163.99 22.1667 163.974 22.4167 163.953 22.6562L166.031 22.5625V25H159.953L159.781 23.5156H159.75C159.042 24.2552 158.307 24.7708 157.547 25.0625C156.797 25.3646 156.026 25.5156 155.234 25.5156C154.276 25.5156 153.401 25.3281 152.609 24.9531C151.818 24.5677 151.135 24.026 150.562 23.3281C150 22.6198 149.562 21.7656 149.25 20.7656C148.938 19.7656 148.781 18.6458 148.781 17.4062C148.781 16.1146 148.969 14.9271 149.344 13.8438C149.729 12.75 150.266 11.8073 150.953 11.0156C151.651 10.224 152.484 9.60417 153.453 9.15625C154.432 8.70833 155.516 8.48438 156.703 8.48438C157.297 8.48438 157.818 8.54688 158.266 8.67188C158.724 8.78646 159.151 8.91667 159.547 9.0625V6.9375C159.547 6.78125 159.547 6.59375 159.547 6.375C159.557 6.15625 159.568 5.92188 159.578 5.67188C159.589 5.42188 159.599 5.16667 159.609 4.90625C159.63 4.63542 159.651 4.38021 159.672 4.14062L157.422 4.23438V1.79688C158.161 1.79688 158.812 1.76562 159.375 1.70312C159.948 1.64062 160.432 1.5625 160.828 1.46875C161.234 1.375 161.557 1.27604 161.797 1.17188C162.047 1.05729 162.229 0.947917 162.344 0.84375H164.078ZM156.906 22.5938C157.448 22.5938 157.953 22.4531 158.422 22.1719C158.891 21.8906 159.266 21.526 159.547 21.0781V11.4531C159.318 11.2969 159 11.1615 158.594 11.0469C158.188 10.9219 157.75 10.8594 157.281 10.8594C156.542 10.8802 155.927 11.0677 155.438 11.4219C154.948 11.7656 154.557 12.224 154.266 12.7969C153.974 13.3594 153.766 14 153.641 14.7188C153.526 15.4375 153.469 16.1719 153.469 16.9219C153.469 17.6094 153.531 18.2917 153.656 18.9688C153.781 19.6458 153.979 20.2552 154.25 20.7969C154.531 21.3281 154.891 21.7604 155.328 22.0938C155.766 22.4271 156.292 22.5938 156.906 22.5938ZM175.828 10.7344C175.203 10.7552 174.682 10.9375 174.266 11.2812C173.849 11.6146 173.51 12.0521 173.25 12.5938C172.99 13.1354 172.802 13.75 172.688 14.4375C172.583 15.1146 172.531 15.8021 172.531 16.5C172.531 17.3229 172.594 18.1406 172.719 18.9531C172.854 19.7552 173.062 20.474 173.344 21.1094C173.635 21.7448 174.005 22.2604 174.453 22.6562C174.911 23.0521 175.464 23.25 176.109 23.25C176.745 23.2396 177.26 23.0625 177.656 22.7188C178.062 22.375 178.38 21.9323 178.609 21.3906C178.849 20.8385 179.01 20.224 179.094 19.5469C179.188 18.8698 179.234 18.1875 179.234 17.5C179.234 16.7083 179.177 15.9115 179.062 15.1094C178.958 14.2969 178.771 13.5677 178.5 12.9219C178.24 12.276 177.891 11.75 177.453 11.3438C177.026 10.9375 176.484 10.7344 175.828 10.7344ZM175.891 8.48438C177.036 8.48438 178.099 8.67188 179.078 9.04688C180.068 9.42188 180.922 9.96354 181.641 10.6719C182.359 11.3802 182.922 12.2448 183.328 13.2656C183.745 14.276 183.953 15.4219 183.953 16.7031C183.953 18.0469 183.755 19.2656 183.359 20.3594C182.974 21.4427 182.427 22.3698 181.719 23.1406C181.021 23.901 180.182 24.4896 179.203 24.9062C178.224 25.3125 177.151 25.5156 175.984 25.5156C174.828 25.5156 173.75 25.3281 172.75 24.9531C171.76 24.5677 170.901 24.026 170.172 23.3281C169.443 22.6198 168.87 21.7656 168.453 20.7656C168.036 19.7552 167.828 18.6198 167.828 17.3594C167.828 16.0365 168.042 14.8281 168.469 13.7344C168.896 12.6406 169.474 11.7083 170.203 10.9375C170.943 10.1562 171.802 9.55208 172.781 9.125C173.76 8.69792 174.797 8.48438 175.891 8.48438ZM194.109 10.7344C193.641 10.7344 193.219 10.8229 192.844 11C192.479 11.1771 192.161 11.4219 191.891 11.7344C191.62 12.0469 191.396 12.4271 191.219 12.875C191.052 13.3125 190.932 13.7969 190.859 14.3281H196.75C196.729 13.6719 196.651 13.1146 196.516 12.6562C196.38 12.1979 196.193 11.8281 195.953 11.5469C195.724 11.2552 195.453 11.0469 195.141 10.9219C194.828 10.7969 194.484 10.7344 194.109 10.7344ZM201.172 16.3906L190.656 16.5781C190.656 17.4531 190.734 18.2656 190.891 19.0156C191.057 19.7552 191.318 20.3958 191.672 20.9375C192.026 21.4688 192.49 21.8906 193.062 22.2031C193.635 22.5052 194.339 22.6562 195.172 22.6562C195.495 22.6562 195.854 22.6146 196.25 22.5312C196.646 22.4479 197.047 22.3125 197.453 22.125C197.87 21.9375 198.286 21.6927 198.703 21.3906C199.12 21.0781 199.51 20.6979 199.875 20.25L201.312 21.6094C200.74 22.4323 200.13 23.099 199.484 23.6094C198.839 24.1198 198.188 24.5156 197.531 24.7969C196.885 25.0781 196.245 25.2656 195.609 25.3594C194.984 25.4635 194.401 25.5156 193.859 25.5156C192.682 25.5156 191.609 25.3177 190.641 24.9219C189.672 24.526 188.839 23.9583 188.141 23.2188C187.443 22.4792 186.901 21.5885 186.516 20.5469C186.141 19.5052 185.953 18.3333 185.953 17.0312C185.953 15.9062 186.141 14.8333 186.516 13.8125C186.901 12.7812 187.443 11.8698 188.141 11.0781C188.839 10.2865 189.677 9.65625 190.656 9.1875C191.646 8.71875 192.745 8.48438 193.953 8.48438C194.547 8.48438 195.135 8.53646 195.719 8.64062C196.312 8.74479 196.875 8.92188 197.406 9.17188C197.948 9.41146 198.448 9.72917 198.906 10.125C199.375 10.5208 199.776 11.0104 200.109 11.5938C200.443 12.1771 200.703 12.8646 200.891 13.6562C201.089 14.4479 201.182 15.3594 201.172 16.3906ZM205.703 19.7188C205.745 20.2083 205.901 20.6667 206.172 21.0938C206.443 21.5208 206.797 21.8906 207.234 22.2031C207.672 22.5156 208.182 22.7604 208.766 22.9375C209.359 23.1146 209.995 23.2031 210.672 23.2031C210.932 23.2031 211.193 23.1719 211.453 23.1094C211.724 23.0469 211.964 22.9531 212.172 22.8281C212.38 22.6927 212.547 22.526 212.672 22.3281C212.807 22.1302 212.875 21.8906 212.875 21.6094C212.875 21.3073 212.792 21.0521 212.625 20.8438C212.469 20.625 212.234 20.4271 211.922 20.25C211.609 20.0625 211.219 19.8802 210.75 19.7031C210.292 19.526 209.76 19.3177 209.156 19.0781C208.49 18.8177 207.818 18.5521 207.141 18.2812C206.464 18 205.849 17.6615 205.297 17.2656C204.745 16.8698 204.292 16.3854 203.938 15.8125C203.594 15.2292 203.422 14.5052 203.422 13.6406C203.422 13.026 203.536 12.4115 203.766 11.7969C204.005 11.1823 204.37 10.6302 204.859 10.1406C205.349 9.65104 205.974 9.25521 206.734 8.95312C207.495 8.64062 208.401 8.48438 209.453 8.48438C209.745 8.48438 210.057 8.50521 210.391 8.54688C210.734 8.58854 211.078 8.65625 211.422 8.75C211.766 8.83333 212.099 8.94271 212.422 9.07812C212.745 9.21354 213.036 9.375 213.297 9.5625H213.328L213.281 8.65625H215.719V14.3125H213.656C213.562 13.7604 213.385 13.2656 213.125 12.8281C212.875 12.3802 212.557 12.0052 212.172 11.7031C211.786 11.3906 211.344 11.151 210.844 10.9844C210.354 10.8177 209.823 10.7344 209.25 10.7344C208.979 10.7344 208.714 10.7656 208.453 10.8281C208.203 10.8906 207.979 10.9896 207.781 11.125C207.583 11.2604 207.427 11.4375 207.312 11.6562C207.198 11.8646 207.141 12.125 207.141 12.4375C207.141 12.8125 207.24 13.125 207.438 13.375C207.635 13.6146 207.911 13.8229 208.266 14C208.62 14.1771 209.031 14.3438 209.5 14.5C209.979 14.6458 210.495 14.8125 211.047 15C211.859 15.2812 212.609 15.5885 213.297 15.9219C213.984 16.2552 214.578 16.6458 215.078 17.0938C215.578 17.5312 215.969 18.0365 216.25 18.6094C216.542 19.1719 216.688 19.8281 216.688 20.5781C216.688 21.4115 216.521 22.1406 216.188 22.7656C215.865 23.3802 215.432 23.8906 214.891 24.2969C214.349 24.7031 213.729 25.0052 213.031 25.2031C212.333 25.4115 211.609 25.5156 210.859 25.5156C210.401 25.5156 209.943 25.4844 209.484 25.4219C209.026 25.3594 208.589 25.2708 208.172 25.1562C207.755 25.0521 207.37 24.9219 207.016 24.7656C206.672 24.6094 206.375 24.4375 206.125 24.25H206.094L206.203 25.2188H203.766L203.641 19.7188H205.703ZM243.953 19.8594C243.953 20.0156 243.948 20.2031 243.938 20.4219C243.938 20.6406 243.932 20.875 243.922 21.125C243.911 21.375 243.896 21.6354 243.875 21.9062C243.865 22.1667 243.849 22.4167 243.828 22.6562L245.906 22.5625V25H237.516V22.9219C237.964 22.9219 238.312 22.8542 238.562 22.7188C238.823 22.5833 239.016 22.3906 239.141 22.1406C239.266 21.8906 239.344 21.5938 239.375 21.25C239.406 20.8958 239.422 20.5052 239.422 20.0781L239.406 15.5156C239.396 14.1094 239.182 13.0781 238.766 12.4219C238.349 11.7656 237.698 11.4375 236.812 11.4375C236.26 11.4375 235.724 11.5521 235.203 11.7812C234.693 12.0104 234.255 12.2865 233.891 12.6094V19.8594C233.891 20.0156 233.885 20.2031 233.875 20.4219C233.875 20.6406 233.87 20.875 233.859 21.125C233.849 21.375 233.833 21.6354 233.812 21.9062C233.802 22.1667 233.786 22.4167 233.766 22.6562L235.844 22.5625V25H227.453V22.9219C227.901 22.9219 228.25 22.8542 228.5 22.7188C228.76 22.5833 228.953 22.3906 229.078 22.1406C229.203 21.8906 229.281 21.5938 229.312 21.25C229.344 20.8958 229.359 20.5052 229.359 20.0781V14.6875C229.359 14.3021 229.365 13.875 229.375 13.4062C229.396 12.9271 229.432 12.4479 229.484 11.9688L227.234 12.0625V9.64062C227.974 9.64062 228.625 9.60938 229.188 9.54688C229.76 9.48438 230.245 9.40625 230.641 9.3125C231.047 9.21875 231.37 9.11979 231.609 9.01562C231.859 8.90104 232.042 8.79167 232.156 8.6875H233.734L233.875 10.2656H233.922C234.234 10.026 234.589 9.79688 234.984 9.57812C235.391 9.35938 235.802 9.17188 236.219 9.01562C236.646 8.84896 237.057 8.71875 237.453 8.625C237.859 8.53125 238.224 8.48438 238.547 8.48438C239.526 8.48438 240.354 8.625 241.031 8.90625C241.719 9.17708 242.276 9.59896 242.703 10.1719C243.141 10.7448 243.458 11.4792 243.656 12.375C243.854 13.2708 243.953 14.3333 243.953 15.5625V19.8594ZM255.516 10.7344C254.891 10.7552 254.37 10.9375 253.953 11.2812C253.536 11.6146 253.198 12.0521 252.938 12.5938C252.677 13.1354 252.49 13.75 252.375 14.4375C252.271 15.1146 252.219 15.8021 252.219 16.5C252.219 17.3229 252.281 18.1406 252.406 18.9531C252.542 19.7552 252.75 20.474 253.031 21.1094C253.323 21.7448 253.693 22.2604 254.141 22.6562C254.599 23.0521 255.151 23.25 255.797 23.25C256.432 23.2396 256.948 23.0625 257.344 22.7188C257.75 22.375 258.068 21.9323 258.297 21.3906C258.536 20.8385 258.698 20.224 258.781 19.5469C258.875 18.8698 258.922 18.1875 258.922 17.5C258.922 16.7083 258.865 15.9115 258.75 15.1094C258.646 14.2969 258.458 13.5677 258.188 12.9219C257.927 12.276 257.578 11.75 257.141 11.3438C256.714 10.9375 256.172 10.7344 255.516 10.7344ZM255.578 8.48438C256.724 8.48438 257.786 8.67188 258.766 9.04688C259.755 9.42188 260.609 9.96354 261.328 10.6719C262.047 11.3802 262.609 12.2448 263.016 13.2656C263.432 14.276 263.641 15.4219 263.641 16.7031C263.641 18.0469 263.443 19.2656 263.047 20.3594C262.661 21.4427 262.115 22.3698 261.406 23.1406C260.708 23.901 259.87 24.4896 258.891 24.9062C257.911 25.3125 256.839 25.5156 255.672 25.5156C254.516 25.5156 253.438 25.3281 252.438 24.9531C251.448 24.5677 250.589 24.026 249.859 23.3281C249.13 22.6198 248.557 21.7656 248.141 20.7656C247.724 19.7552 247.516 18.6198 247.516 17.3594C247.516 16.0365 247.729 14.8281 248.156 13.7344C248.583 12.6406 249.161 11.7083 249.891 10.9375C250.63 10.1562 251.49 9.55208 252.469 9.125C253.448 8.69792 254.484 8.48438 255.578 8.48438ZM265.188 9C265.74 8.98958 266.255 8.85417 266.734 8.59375C267.214 8.32292 267.641 7.98958 268.016 7.59375C268.401 7.19792 268.724 6.76562 268.984 6.29688C269.255 5.82812 269.453 5.39062 269.578 4.98438H271.938L271.922 9H276V11.4688L271.922 11.5469C271.911 13.0573 271.901 14.3125 271.891 15.3125C271.891 16.3021 271.885 17.099 271.875 17.7031C271.875 18.2969 271.875 18.724 271.875 18.9844C271.875 19.2344 271.875 19.3802 271.875 19.4219C271.875 19.7969 271.896 20.1719 271.938 20.5469C271.99 20.9115 272.083 21.2448 272.219 21.5469C272.365 21.8385 272.562 22.0781 272.812 22.2656C273.073 22.4427 273.406 22.5312 273.812 22.5312C273.948 22.5312 274.115 22.5104 274.312 22.4688C274.521 22.4271 274.75 22.3438 275 22.2188C275.26 22.0833 275.536 21.8906 275.828 21.6406C276.12 21.3802 276.417 21.0365 276.719 20.6094L278.266 22.0469C277.682 22.901 277.099 23.5625 276.516 24.0312C275.932 24.5 275.375 24.8438 274.844 25.0625C274.312 25.2812 273.828 25.4115 273.391 25.4531C272.953 25.4948 272.589 25.5156 272.297 25.5156C271.943 25.5156 271.573 25.4844 271.188 25.4219C270.812 25.3698 270.438 25.2656 270.062 25.1094C269.698 24.9531 269.349 24.7344 269.016 24.4531C268.693 24.1615 268.401 23.7865 268.141 23.3281C267.891 22.8698 267.693 22.3177 267.547 21.6719C267.401 21.0156 267.328 20.2448 267.328 19.3594L267.375 11.6406L265.188 11.6719V9ZM303.641 19.8594C303.641 20.0156 303.635 20.2031 303.625 20.4219C303.625 20.6406 303.62 20.875 303.609 21.125C303.599 21.375 303.583 21.6354 303.562 21.9062C303.552 22.1667 303.536 22.4167 303.516 22.6562L305.594 22.5625V25H297.359V22.9219C297.766 22.9219 298.083 22.8542 298.312 22.7188C298.552 22.5833 298.729 22.3906 298.844 22.1406C298.958 21.8906 299.031 21.5938 299.062 21.25C299.094 20.8958 299.109 20.5052 299.109 20.0781L299.094 15.0781C299.094 14.3802 299.036 13.7969 298.922 13.3281C298.807 12.8594 298.646 12.4844 298.438 12.2031C298.24 11.9219 297.995 11.724 297.703 11.6094C297.422 11.4948 297.099 11.4375 296.734 11.4375C296.224 11.4375 295.74 11.5573 295.281 11.7969C294.823 12.026 294.422 12.2969 294.078 12.6094V19.8594C294.078 20.0156 294.073 20.2031 294.062 20.4219C294.062 20.6406 294.057 20.875 294.047 21.125C294.036 21.375 294.021 21.6354 294 21.9062C293.99 22.1667 293.974 22.4167 293.953 22.6562L295.875 22.5625V25H287.641V22.9219C288.089 22.9219 288.438 22.8542 288.688 22.7188C288.948 22.5833 289.141 22.3906 289.266 22.1406C289.391 21.8906 289.469 21.5938 289.5 21.25C289.531 20.8958 289.547 20.5052 289.547 20.0781V14.6875C289.547 14.3021 289.552 13.875 289.562 13.4062C289.583 12.9271 289.62 12.4479 289.672 11.9688L287.422 12.0625V9.64062C288.161 9.64062 288.812 9.60938 289.375 9.54688C289.948 9.48438 290.432 9.40625 290.828 9.3125C291.234 9.21875 291.557 9.11979 291.797 9.01562C292.047 8.90104 292.229 8.79167 292.344 8.6875H293.922L294.062 10.2656H294.109C294.422 10.026 294.766 9.79688 295.141 9.57812C295.516 9.35938 295.896 9.17188 296.281 9.01562C296.677 8.84896 297.083 8.71875 297.5 8.625C297.927 8.53125 298.349 8.48438 298.766 8.48438C299.745 8.48438 300.552 8.65625 301.188 9C301.833 9.34375 302.349 9.875 302.734 10.5938C303.12 10.2708 303.526 9.97917 303.953 9.71875C304.38 9.45833 304.818 9.23958 305.266 9.0625C305.724 8.875 306.177 8.73438 306.625 8.64062C307.083 8.53646 307.526 8.48438 307.953 8.48438C308.807 8.48438 309.562 8.60417 310.219 8.84375C310.875 9.07292 311.422 9.45312 311.859 9.98438C312.297 10.5052 312.625 11.1875 312.844 12.0312C313.073 12.875 313.188 13.9115 313.188 15.1406V19.8594C313.188 20.0156 313.182 20.2031 313.172 20.4219C313.172 20.6406 313.167 20.875 313.156 21.125C313.146 21.375 313.13 21.6354 313.109 21.9062C313.099 22.1667 313.083 22.4167 313.062 22.6562L315.141 22.5625V25H307.062V22.9219C307.427 22.9219 307.714 22.8542 307.922 22.7188C308.141 22.5833 308.302 22.3906 308.406 22.1406C308.521 21.8906 308.589 21.5938 308.609 21.25C308.641 20.8958 308.656 20.5052 308.656 20.0781L308.641 15.1719C308.641 14.4531 308.573 13.8542 308.438 13.375C308.312 12.8958 308.135 12.5156 307.906 12.2344C307.688 11.9531 307.417 11.7552 307.094 11.6406C306.781 11.526 306.432 11.4688 306.047 11.4688C305.505 11.4792 305.016 11.5833 304.578 11.7812C304.141 11.9792 303.74 12.224 303.375 12.5156C303.458 12.9531 303.521 13.4219 303.562 13.9219C303.615 14.4219 303.641 14.9688 303.641 15.5625V19.8594ZM325.641 17.6406C325.036 17.7031 324.469 17.8125 323.938 17.9688C323.406 18.125 322.943 18.3333 322.547 18.5938C322.161 18.8438 321.854 19.1458 321.625 19.5C321.406 19.8542 321.297 20.2604 321.297 20.7188C321.307 21.0208 321.365 21.276 321.469 21.4844C321.573 21.6927 321.703 21.8646 321.859 22C322.026 22.1354 322.214 22.2344 322.422 22.2969C322.641 22.3594 322.865 22.3906 323.094 22.3906C323.594 22.3906 324.057 22.2865 324.484 22.0781C324.911 21.8698 325.292 21.5833 325.625 21.2188L325.641 17.6406ZM317.438 12.7031C317.438 12.0781 317.609 11.5052 317.953 10.9844C318.307 10.4635 318.786 10.0208 319.391 9.65625C320.005 9.28125 320.724 8.99479 321.547 8.79688C322.37 8.58854 323.25 8.48438 324.188 8.48438C325.125 8.48438 325.958 8.60417 326.688 8.84375C327.427 9.08333 328.047 9.45312 328.547 9.95312C329.057 10.4531 329.443 11.0885 329.703 11.8594C329.974 12.6302 330.109 13.5469 330.109 14.6094C330.109 15.151 330.104 15.6302 330.094 16.0469C330.094 16.4531 330.094 16.849 330.094 17.2344C330.094 17.6094 330.089 18.0052 330.078 18.4219C330.078 18.8385 330.078 19.3177 330.078 19.8594C330.078 20.0156 330.073 20.2031 330.062 20.4219C330.062 20.6406 330.057 20.875 330.047 21.125C330.047 21.375 330.036 21.6354 330.016 21.9062C330.005 22.1667 329.99 22.4167 329.969 22.6562L332.031 22.5625V25H325.984C325.943 24.6979 325.911 24.4479 325.891 24.25C325.88 24.0417 325.87 23.8021 325.859 23.5312H325.828C325.099 24.2604 324.339 24.7708 323.547 25.0625C322.755 25.3646 321.938 25.5156 321.094 25.5156C320.406 25.5156 319.792 25.4062 319.25 25.1875C318.708 24.9792 318.25 24.6823 317.875 24.2969C317.51 23.9115 317.229 23.4635 317.031 22.9531C316.833 22.4323 316.734 21.8646 316.734 21.25C316.734 20.5729 316.854 19.9635 317.094 19.4219C317.333 18.8802 317.661 18.3958 318.078 17.9688C318.505 17.5417 319.005 17.1719 319.578 16.8594C320.151 16.5469 320.766 16.2865 321.422 16.0781C322.089 15.8698 322.781 15.7083 323.5 15.5938C324.219 15.4792 324.938 15.4062 325.656 15.375V13.7031C325.656 13.276 325.62 12.8854 325.547 12.5312C325.474 12.1667 325.349 11.8542 325.172 11.5938C324.995 11.3333 324.76 11.1302 324.469 10.9844C324.177 10.8385 323.812 10.7708 323.375 10.7812C322.938 10.8021 322.531 10.8906 322.156 11.0469C321.781 11.2031 321.458 11.4219 321.188 11.7031C321.354 11.8802 321.458 12.0833 321.5 12.3125C321.552 12.5417 321.578 12.7344 321.578 12.8906C321.578 13.1198 321.536 13.3542 321.453 13.5938C321.37 13.8229 321.24 14.0365 321.062 14.2344C320.885 14.4219 320.661 14.5781 320.391 14.7031C320.12 14.8281 319.797 14.8906 319.422 14.8906C319.109 14.8802 318.828 14.8177 318.578 14.7031C318.328 14.5781 318.12 14.4219 317.953 14.2344C317.786 14.0365 317.656 13.8073 317.562 13.5469C317.479 13.2865 317.438 13.0052 317.438 12.7031ZM332.969 9C333.521 8.98958 334.036 8.85417 334.516 8.59375C334.995 8.32292 335.422 7.98958 335.797 7.59375C336.182 7.19792 336.505 6.76562 336.766 6.29688C337.036 5.82812 337.234 5.39062 337.359 4.98438H339.719L339.703 9H343.781V11.4688L339.703 11.5469C339.693 13.0573 339.682 14.3125 339.672 15.3125C339.672 16.3021 339.667 17.099 339.656 17.7031C339.656 18.2969 339.656 18.724 339.656 18.9844C339.656 19.2344 339.656 19.3802 339.656 19.4219C339.656 19.7969 339.677 20.1719 339.719 20.5469C339.771 20.9115 339.865 21.2448 340 21.5469C340.146 21.8385 340.344 22.0781 340.594 22.2656C340.854 22.4427 341.188 22.5312 341.594 22.5312C341.729 22.5312 341.896 22.5104 342.094 22.4688C342.302 22.4271 342.531 22.3438 342.781 22.2188C343.042 22.0833 343.318 21.8906 343.609 21.6406C343.901 21.3802 344.198 21.0365 344.5 20.6094L346.047 22.0469C345.464 22.901 344.88 23.5625 344.297 24.0312C343.714 24.5 343.156 24.8438 342.625 25.0625C342.094 25.2812 341.609 25.4115 341.172 25.4531C340.734 25.4948 340.37 25.5156 340.078 25.5156C339.724 25.5156 339.354 25.4844 338.969 25.4219C338.594 25.3698 338.219 25.2656 337.844 25.1094C337.479 24.9531 337.13 24.7344 336.797 24.4531C336.474 24.1615 336.182 23.7865 335.922 23.3281C335.672 22.8698 335.474 22.3177 335.328 21.6719C335.182 21.0156 335.109 20.2448 335.109 19.3594L335.156 11.6406L332.969 11.6719V9ZM346.188 9C346.74 8.98958 347.255 8.85417 347.734 8.59375C348.214 8.32292 348.641 7.98958 349.016 7.59375C349.401 7.19792 349.724 6.76562 349.984 6.29688C350.255 5.82812 350.453 5.39062 350.578 4.98438H352.938L352.922 9H357V11.4688L352.922 11.5469C352.911 13.0573 352.901 14.3125 352.891 15.3125C352.891 16.3021 352.885 17.099 352.875 17.7031C352.875 18.2969 352.875 18.724 352.875 18.9844C352.875 19.2344 352.875 19.3802 352.875 19.4219C352.875 19.7969 352.896 20.1719 352.938 20.5469C352.99 20.9115 353.083 21.2448 353.219 21.5469C353.365 21.8385 353.562 22.0781 353.812 22.2656C354.073 22.4427 354.406 22.5312 354.812 22.5312C354.948 22.5312 355.115 22.5104 355.312 22.4688C355.521 22.4271 355.75 22.3438 356 22.2188C356.26 22.0833 356.536 21.8906 356.828 21.6406C357.12 21.3802 357.417 21.0365 357.719 20.6094L359.266 22.0469C358.682 22.901 358.099 23.5625 357.516 24.0312C356.932 24.5 356.375 24.8438 355.844 25.0625C355.312 25.2812 354.828 25.4115 354.391 25.4531C353.953 25.4948 353.589 25.5156 353.297 25.5156C352.943 25.5156 352.573 25.4844 352.188 25.4219C351.812 25.3698 351.438 25.2656 351.062 25.1094C350.698 24.9531 350.349 24.7344 350.016 24.4531C349.693 24.1615 349.401 23.7865 349.141 23.3281C348.891 22.8698 348.693 22.3177 348.547 21.6719C348.401 21.0156 348.328 20.2448 348.328 19.3594L348.375 11.6406L346.188 11.6719V9ZM368.016 10.7344C367.547 10.7344 367.125 10.8229 366.75 11C366.385 11.1771 366.068 11.4219 365.797 11.7344C365.526 12.0469 365.302 12.4271 365.125 12.875C364.958 13.3125 364.839 13.7969 364.766 14.3281H370.656C370.635 13.6719 370.557 13.1146 370.422 12.6562C370.286 12.1979 370.099 11.8281 369.859 11.5469C369.63 11.2552 369.359 11.0469 369.047 10.9219C368.734 10.7969 368.391 10.7344 368.016 10.7344ZM375.078 16.3906L364.562 16.5781C364.562 17.4531 364.641 18.2656 364.797 19.0156C364.964 19.7552 365.224 20.3958 365.578 20.9375C365.932 21.4688 366.396 21.8906 366.969 22.2031C367.542 22.5052 368.245 22.6562 369.078 22.6562C369.401 22.6562 369.76 22.6146 370.156 22.5312C370.552 22.4479 370.953 22.3125 371.359 22.125C371.776 21.9375 372.193 21.6927 372.609 21.3906C373.026 21.0781 373.417 20.6979 373.781 20.25L375.219 21.6094C374.646 22.4323 374.036 23.099 373.391 23.6094C372.745 24.1198 372.094 24.5156 371.438 24.7969C370.792 25.0781 370.151 25.2656 369.516 25.3594C368.891 25.4635 368.307 25.5156 367.766 25.5156C366.589 25.5156 365.516 25.3177 364.547 24.9219C363.578 24.526 362.745 23.9583 362.047 23.2188C361.349 22.4792 360.807 21.5885 360.422 20.5469C360.047 19.5052 359.859 18.3333 359.859 17.0312C359.859 15.9062 360.047 14.8333 360.422 13.8125C360.807 12.7812 361.349 11.8698 362.047 11.0781C362.745 10.2865 363.583 9.65625 364.562 9.1875C365.552 8.71875 366.651 8.48438 367.859 8.48438C368.453 8.48438 369.042 8.53646 369.625 8.64062C370.219 8.74479 370.781 8.92188 371.312 9.17188C371.854 9.41146 372.354 9.72917 372.812 10.125C373.281 10.5208 373.682 11.0104 374.016 11.5938C374.349 12.1771 374.609 12.8646 374.797 13.6562C374.995 14.4479 375.089 15.3594 375.078 16.3906ZM388.469 8.48438C388.844 8.48438 389.198 8.53646 389.531 8.64062C389.875 8.74479 390.172 8.90625 390.422 9.125C390.682 9.33333 390.885 9.60417 391.031 9.9375C391.188 10.2708 391.266 10.6719 391.266 11.1406C391.266 11.3906 391.224 11.651 391.141 11.9219C391.057 12.1823 390.927 12.4219 390.75 12.6406C390.573 12.8594 390.339 13.0417 390.047 13.1875C389.766 13.3229 389.422 13.3906 389.016 13.3906C388.797 13.3906 388.573 13.3646 388.344 13.3125C388.115 13.25 387.901 13.151 387.703 13.0156C387.516 12.8698 387.349 12.6771 387.203 12.4375C387.068 12.1979 386.984 11.8906 386.953 11.5156C386.63 11.5156 386.302 11.625 385.969 11.8438C385.646 12.0521 385.339 12.3177 385.047 12.6406C384.766 12.9531 384.516 13.2917 384.297 13.6562C384.078 14.0208 383.922 14.349 383.828 14.6406V19.8594C383.828 20.0156 383.823 20.2031 383.812 20.4219C383.812 20.6406 383.807 20.875 383.797 21.125C383.786 21.375 383.771 21.6354 383.75 21.9062C383.74 22.1667 383.724 22.4167 383.703 22.6562L385.781 22.5625V25H377.391V22.9219C377.839 22.9219 378.188 22.8542 378.438 22.7188C378.698 22.5833 378.891 22.3906 379.016 22.1406C379.141 21.8906 379.219 21.5938 379.25 21.25C379.281 20.8958 379.297 20.5052 379.297 20.0781V14.6875C379.297 14.3021 379.302 13.875 379.312 13.4062C379.333 12.9271 379.37 12.4479 379.422 11.9688L377.172 12.0625V9.64062C377.911 9.64062 378.562 9.60938 379.125 9.54688C379.698 9.48438 380.182 9.40625 380.578 9.3125C380.984 9.21875 381.307 9.11979 381.547 9.01562C381.797 8.90104 381.979 8.79167 382.094 8.6875H383.672L383.812 11.4375H383.859C384.068 11.1562 384.318 10.8438 384.609 10.5C384.911 10.1562 385.255 9.83854 385.641 9.54688C386.036 9.24479 386.469 8.99479 386.938 8.79688C387.406 8.58854 387.917 8.48438 388.469 8.48438Z" fill="#EDAB03"/>
</svg>
